<svg width="154" height="32" viewBox="0 0 154 32" fill="none" xmlns="http://www.w3.org/2000/svg">
<path d="M2.39997 5.27259C2.39997 2.60499 4.15685 0.799988 6.75692 0.799988H25.243C27.8419 0.799988 29.6 2.60372 29.6 5.27259V31.2L27.3683 28.5387V5.27259C27.3683 4.69576 27.1449 4.14251 26.7472 3.73428C26.3494 3.32604 25.8098 3.09619 25.2467 3.09519H6.76063C6.19771 3.09653 5.65827 3.32648 5.26057 3.73464C4.86287 4.1428 4.63936 4.69587 4.63903 5.27259V24.0661C4.63903 24.6429 4.86244 25.1962 5.26021 25.6044C5.65798 26.0127 6.19761 26.2425 6.76063 26.2435H22.2683L24.4839 28.521L6.75692 28.5387C4.15808 28.5387 2.39997 26.735 2.39997 24.0661V5.27259Z" fill="#00925D"/>
<path d="M8.05619 12.1552V8.93137C8.05619 8.13535 8.37463 7.51445 9.0115 7.06868C9.64837 6.62291 10.5006 6.40002 11.5683 6.40002C12.6548 6.40002 13.5164 6.60699 14.1533 7.02092C14.7901 7.41893 15.1086 7.9443 15.1086 8.59704V11.5582C15.1086 11.8448 14.8651 12.0438 14.378 12.1552C14.1158 12.2189 13.8536 12.2508 13.5913 12.2508C13.3291 12.2508 13.0668 12.2269 12.8046 12.1791C12.8608 11.797 12.8889 11.3911 12.8889 10.9612V8.93137C12.8889 8.62888 12.7671 8.39803 12.5236 8.23883C12.2801 8.06371 11.9617 7.97614 11.5683 7.97614C11.175 7.97614 10.8565 8.06371 10.613 8.23883C10.3883 8.39803 10.2759 8.62888 10.2759 8.93137V11.7254C10.2759 12.2826 10.4913 12.6727 10.9221 12.8955L13.9004 14.5194C14.7433 14.9652 15.1648 15.6498 15.1648 16.5732V19.8687C15.1648 20.6647 14.837 21.2856 14.1814 21.7314C13.5258 22.1771 12.6548 22.4 11.5683 22.4C10.5006 22.4 9.639 22.201 8.9834 21.803C8.3278 21.3891 8 20.8557 8 20.203V17.2418C8 16.9552 8.24351 16.7562 8.73053 16.6448C8.99277 16.5811 9.25501 16.5493 9.51725 16.5493C9.77949 16.5493 10.0417 16.5732 10.304 16.6209C10.2478 17.003 10.2197 17.409 10.2197 17.8388V19.8687C10.2197 20.1552 10.3508 20.3861 10.613 20.5612C10.8753 20.7363 11.2031 20.8239 11.5964 20.8239C11.9898 20.8239 12.3082 20.7363 12.5517 20.5612C12.814 20.3861 12.9451 20.1552 12.9451 19.8687V17.1702C12.9451 16.5493 12.6922 16.1035 12.1865 15.8329L9.20818 14.1851C8.44019 13.7712 8.05619 13.0946 8.05619 12.1552Z" fill="white"/>
<path d="M16.8914 12.1552V8.93137C16.8914 8.13535 17.2099 7.51445 17.8467 7.06868C18.4836 6.62291 19.3359 6.40002 20.4036 6.40002C21.49 6.40002 22.3516 6.60699 22.9885 7.02092C23.6254 7.41893 23.9438 7.9443 23.9438 8.59704V11.5582C23.9438 11.8448 23.7003 12.0438 23.2133 12.1552C22.951 12.2189 22.6888 12.2508 22.4266 12.2508C22.1643 12.2508 21.9021 12.2269 21.6398 12.1791C21.696 11.797 21.7241 11.3911 21.7241 10.9612V8.93137C21.7241 8.62888 21.6024 8.39803 21.3589 8.23883C21.1154 8.06371 20.7969 7.97614 20.4036 7.97614C20.0102 7.97614 19.6918 8.06371 19.4483 8.23883C19.2235 8.39803 19.1111 8.62888 19.1111 8.93137V11.7254C19.1111 12.2826 19.3265 12.6727 19.7573 12.8955L22.7356 14.5194C23.5785 14.9652 24 15.6498 24 16.5732V19.8687C24 20.6647 23.6722 21.2856 23.0166 21.7314C22.361 22.1771 21.49 22.4 20.4036 22.4C19.3359 22.4 18.4742 22.201 17.8186 21.803C17.163 21.3891 16.8352 20.8557 16.8352 20.203V17.2418C16.8352 16.9552 17.0787 16.7562 17.5658 16.6448C17.828 16.5811 18.0902 16.5493 18.3525 16.5493C18.6147 16.5493 18.877 16.5732 19.1392 16.6209C19.083 17.003 19.0549 17.409 19.0549 17.8388V19.8687C19.0549 20.1552 19.186 20.3861 19.4483 20.5612C19.7105 20.7363 20.0383 20.8239 20.4317 20.8239C20.825 20.8239 21.1435 20.7363 21.387 20.5612C21.6492 20.3861 21.7803 20.1552 21.7803 19.8687V17.1702C21.7803 16.5493 21.5275 16.1035 21.0217 15.8329L18.0434 14.1851C17.2754 13.7712 16.8914 13.0946 16.8914 12.1552Z" fill="white"/>
<path d="M6.84267 29.1987L6.86134 29.18H6.828L6.84267 29.1987Z" fill="black"/>
<path d="M38.9506 20.661V23.9548C38.9506 24.0584 39.0024 24.1102 39.1059 24.1102H40.3482C40.4518 24.1102 40.5035 24.0584 40.5035 23.9548V18.3616L38.0499 17.274C37.8635 17.2119 37.6047 17.1083 37.2734 16.9633C36.9421 16.7976 36.6419 16.5593 36.3727 16.2486C36.1242 15.9379 36 15.5132 36 14.9746V7.88983C36 7.01977 36.2692 6.3258 36.8075 5.80791C37.3459 5.2693 38.0499 5 38.9195 5H40.5346C41.4042 5 42.1082 5.2693 42.6466 5.80791C43.1849 6.3258 43.4541 7.01977 43.4541 7.88983V12.4887L40.5035 12.2401V8.0452C40.5035 7.94162 40.4518 7.88983 40.3482 7.88983H39.1059C39.0024 7.88983 38.9506 7.94162 38.9506 8.0452V14.5395L41.4042 15.6271C41.5906 15.71 41.8494 15.8239 42.1807 15.9689C42.512 16.1139 42.8019 16.3418 43.0504 16.6525C43.3195 16.9633 43.4541 17.3879 43.4541 17.9266V24.1102C43.4541 24.9802 43.1849 25.6846 42.6466 26.2232C42.1082 26.7411 41.4042 27 40.5346 27H38.9195C38.0499 27 37.3459 26.7411 36.8075 26.2232C36.2692 25.6846 36 24.9802 36 24.1102V20.661H38.9506Z" fill="white"/>
<path d="M50.3266 26.8757C49.3741 26.8757 48.608 26.6064 48.0283 26.0678C47.4692 25.5085 47.1897 24.8145 47.1897 23.9859V14.2288C47.1897 13.3795 47.4692 12.6855 48.0283 12.1469C48.608 11.6083 49.3741 11.339 50.3266 11.339H50.4508C51.0099 11.339 51.5068 11.4736 51.9417 11.7429V11.339H54.8923V23.9859H55.3271L55.6377 26.8757H51.9417V25.6638L51.1652 26.8757H50.3266ZM50.2956 14.2288C50.192 14.2288 50.1403 14.2806 50.1403 14.3842V23.8305C50.1403 23.9341 50.192 23.9859 50.2956 23.9859H51.9417V14.2288H50.2956Z" fill="white"/>
<path d="M61.6903 7.20622L62.0008 10.096H59.0503V7.20622H61.6903ZM62.0008 11.339V26.8757H59.0503V14.2288H58.5844L58.895 11.339H62.0008Z" fill="white"/>
<path d="M66.1518 26.8757V14.2288H65.4064L65.717 11.339H69.1024V12.5508L69.8789 11.339H70.7175C71.6699 11.339 72.4257 11.6083 72.9848 12.1469C73.5645 12.6855 73.8544 13.3795 73.8544 14.2288V23.9859H74.6309L74.3203 26.8757H70.9038V14.3842C70.9038 14.2806 70.8521 14.2288 70.7485 14.2288H69.1024V26.8757H66.1518Z" fill="white"/>
<path d="M83.1674 23.9859V26.8757H81.366C80.4964 26.8757 79.7924 26.6168 79.254 26.0989C78.7157 25.5603 78.4465 24.8559 78.4465 23.9859V14.2288H77.142L77.3905 11.339H78.4465V8.01412H77.67L77.9185 5.12429H81.3971V11.339H83.1674L82.919 14.2288H81.3971V23.9859H83.1674Z" fill="white"/>
<path d="M89.5304 20.661V23.9548C89.5304 24.0584 89.5821 24.1102 89.6857 24.1102H90.928C91.0316 24.1102 91.0833 24.0584 91.0833 23.9548V18.3616L88.6297 17.274C88.4433 17.2119 88.1845 17.1083 87.8532 16.9633C87.5219 16.7976 87.2217 16.5593 86.9525 16.2486C86.704 15.9379 86.5798 15.5132 86.5798 14.9746V7.88983C86.5798 7.01977 86.849 6.3258 87.3873 5.80791C87.9257 5.2693 88.6297 5 89.4993 5H91.1144C91.984 5 92.688 5.2693 93.2264 5.80791C93.7647 6.3258 94.0339 7.01977 94.0339 7.88983V12.4887L91.0833 12.2401V8.0452C91.0833 7.94162 91.0316 7.88983 90.928 7.88983H89.6857C89.5821 7.88983 89.5304 7.94162 89.5304 8.0452V14.5395L91.984 15.6271C92.1704 15.71 92.4292 15.8239 92.7605 15.9689C93.0918 16.1139 93.3817 16.3418 93.6301 16.6525C93.8993 16.9633 94.0339 17.3879 94.0339 17.9266V24.1102C94.0339 24.9802 93.7647 25.6846 93.2264 26.2232C92.688 26.7411 91.984 27 91.1144 27H89.4993C88.6297 27 87.9257 26.7411 87.3873 26.2232C86.849 25.6846 86.5798 24.9802 86.5798 24.1102V20.661H89.5304Z" fill="white"/>
<path d="M103.484 23.9859V26.8757H101.683C100.813 26.8757 100.109 26.6168 99.5709 26.0989C99.0325 25.5603 98.7633 24.8559 98.7633 23.9859V14.2288H97.4589L97.7073 11.339H98.7633V8.01412H97.9869L98.2353 5.12429H101.714V11.339H103.484L103.236 14.2288H101.714V23.9859H103.484Z" fill="white"/>
<path d="M110.282 11.339V12.7062L111.121 11.339H113.202V14.3531H110.282V26.8757H107.331V14.2288H106.586L106.897 11.339H110.282Z" fill="white"/>
<path d="M116.63 24.1102V14.1045C116.63 13.2345 116.9 12.5405 117.438 12.0226C117.976 11.484 118.68 11.2147 119.55 11.2147H121.476C122.345 11.2147 123.049 11.484 123.588 12.0226C124.126 12.5405 124.395 13.2345 124.395 14.1045V17.9266H121.445V14.2599C121.445 14.1563 121.393 14.1045 121.289 14.1045H119.736C119.633 14.1045 119.581 14.1563 119.581 14.2599V17.9266H124.395V20.8164H119.581V23.9548C119.581 24.0584 119.633 24.1102 119.736 24.1102H121.289C121.393 24.1102 121.445 24.0687 121.445 23.9859V22.2768H124.395V24.1102C124.395 24.9802 124.126 25.6846 123.588 26.2232C123.049 26.7411 122.345 27 121.476 27H119.55C118.68 27 117.976 26.7411 117.438 26.2232C116.9 25.6846 116.63 24.9802 116.63 24.1102Z" fill="white"/>
<path d="M131.412 26.8757C130.46 26.8757 129.693 26.6064 129.114 26.0678C128.555 25.5085 128.275 24.8145 128.275 23.9859V14.2288C128.275 13.3795 128.555 12.6855 129.114 12.1469C129.693 11.6083 130.46 11.339 131.412 11.339H131.536C132.095 11.339 132.592 11.4736 133.027 11.7429V11.339H135.978V23.9859H136.412L136.723 26.8757H133.027V25.6638L132.251 26.8757H131.412ZM131.381 14.2288C131.277 14.2288 131.226 14.2806 131.226 14.3842V23.8305C131.226 23.9341 131.277 23.9859 131.381 23.9859H133.027V14.2288H131.381Z" fill="white"/>
<path d="M148.118 26.8757H145.167V14.3842C145.167 14.2806 145.115 14.2288 145.012 14.2288H143.366V26.8757H140.415V14.2288H139.67L139.98 11.339H143.366V12.5508L144.142 11.339H144.981C145.664 11.339 146.254 11.484 146.751 11.774C147.248 12.064 147.61 12.4576 147.838 12.9548L148.894 11.339H149.733C150.685 11.339 151.441 11.6083 152 12.1469C152.58 12.6855 152.87 13.3795 152.87 14.2288V23.9859H153.615L153.305 26.8757H149.919V14.3842C149.919 14.2806 149.867 14.2288 149.764 14.2288H148.118V26.8757Z" fill="white"/>
</svg>
