<svg width="65" height="64" viewBox="0 0 65 64" fill="none" xmlns="http://www.w3.org/2000/svg">
<path d="M4.91554 10.5452C4.91554 5.21001 8.42929 1.60001 13.6294 1.60001H50.6017C55.7993 1.60001 59.3156 5.20747 59.3156 10.5452V62.4L54.8523 57.0775V10.5452C54.8523 9.39156 54.4055 8.28505 53.6099 7.46858C52.8144 6.65212 51.7351 6.19242 50.6091 6.19041H13.6369C12.511 6.19309 11.4321 6.653 10.6367 7.46932C9.84133 8.28564 9.3943 9.39176 9.39365 10.5452V48.1323C9.39365 49.2859 9.84047 50.3924 10.636 51.2089C11.4315 52.0254 12.5108 52.4851 13.6369 52.4871H44.6523L49.0834 57.042L13.6294 57.0775C8.43176 57.0775 4.91554 53.47 4.91554 48.1323V10.5452Z" fill="#00925D"/>
<path d="M16.2279 24.3104V17.8627C16.2279 16.2706 16.8648 15.0288 18.1385 14.1373C19.4123 13.2458 21.1168 12.8 23.2522 12.8C25.4251 12.8 27.1483 13.2139 28.4221 14.0418C29.6958 14.8378 30.3327 15.8885 30.3327 17.194V23.1164C30.3327 23.6895 29.8457 24.0876 28.8716 24.3104C28.3472 24.4378 27.8227 24.5015 27.2982 24.5015C26.7737 24.5015 26.2492 24.4537 25.7248 24.3582C25.8371 23.594 25.8933 22.7821 25.8933 21.9224V17.8627C25.8933 17.2577 25.6498 16.796 25.1628 16.4776C24.6758 16.1274 24.0389 15.9522 23.2522 15.9522C22.4655 15.9522 21.8286 16.1274 21.3416 16.4776C20.8921 16.796 20.6673 17.2577 20.6673 17.8627V23.4507C20.6673 24.5652 21.0981 25.3453 21.9597 25.791L27.9163 29.0388C29.6022 29.9303 30.4451 31.2995 30.4451 33.1463V39.7373C30.4451 41.3293 29.7895 42.5711 28.4783 43.4627C27.1671 44.3542 25.4251 44.8 23.2522 44.8C21.1168 44.8 19.3935 44.402 18.0823 43.606C16.7711 42.7781 16.1155 41.7114 16.1155 40.406V34.4836C16.1155 33.9104 16.6026 33.5124 17.5766 33.2895C18.1011 33.1622 18.6256 33.0985 19.15 33.0985C19.6745 33.0985 20.199 33.1463 20.7235 33.2418C20.6111 34.006 20.5549 34.8179 20.5549 35.6776V39.7373C20.5549 40.3104 20.8171 40.7721 21.3416 41.1224C21.8661 41.4726 22.5217 41.6477 23.3084 41.6477C24.0951 41.6477 24.732 41.4726 25.219 41.1224C25.7435 40.7721 26.0057 40.3104 26.0057 39.7373V34.3403C26.0057 33.0985 25.5 32.207 24.4885 31.6657L18.5319 28.3701C16.9959 27.5423 16.2279 26.189 16.2279 24.3104Z" fill="white"/>
<path d="M33.8984 24.3104V17.8627C33.8984 16.2706 34.5353 15.0288 35.809 14.1373C37.0827 13.2458 38.7873 12.8 40.9227 12.8C43.0955 12.8 44.8188 13.2139 46.0925 14.0418C47.3663 14.8378 48.0032 15.8885 48.0032 17.194V23.1164C48.0032 23.6895 47.5161 24.0876 46.5421 24.3104C46.0176 24.4378 45.4931 24.5015 44.9687 24.5015C44.4442 24.5015 43.9197 24.4537 43.3952 24.3582C43.5076 23.594 43.5638 22.7821 43.5638 21.9224V17.8627C43.5638 17.2577 43.3203 16.796 42.8333 16.4776C42.3463 16.1274 41.7094 15.9522 40.9227 15.9522C40.136 15.9522 39.4991 16.1274 39.0121 16.4776C38.5625 16.796 38.3377 17.2577 38.3377 17.8627V23.4507C38.3377 24.5652 38.7686 25.3453 39.6302 25.791L45.5868 29.0388C47.2726 29.9303 48.1155 31.2995 48.1155 33.1463V39.7373C48.1155 41.3293 47.4599 42.5711 46.1487 43.4627C44.8375 44.3542 43.0955 44.8 40.9227 44.8C38.7873 44.8 37.064 44.402 35.7528 43.606C34.4416 42.7781 33.786 41.7114 33.786 40.406V34.4836C33.786 33.9104 34.273 33.5124 35.2471 33.2895C35.7715 33.1622 36.296 33.0985 36.8205 33.0985C37.345 33.0985 37.8695 33.1463 38.3939 33.2418C38.2815 34.006 38.2253 34.8179 38.2253 35.6776V39.7373C38.2253 40.3104 38.4876 40.7721 39.0121 41.1224C39.5365 41.4726 40.1921 41.6477 40.9789 41.6477C41.7656 41.6477 42.4025 41.4726 42.8895 41.1224C43.414 40.7721 43.6762 40.3104 43.6762 39.7373V34.3403C43.6762 33.0985 43.1704 32.207 42.1589 31.6657L36.2024 28.3701C34.6664 27.5423 33.8984 26.189 33.8984 24.3104Z" fill="white"/>
<path d="M13.8009 58.3973L13.8382 58.36H13.7715L13.8009 58.3973Z" fill="black"/>
</svg>
